<svg width="40" height="50" viewBox="0 0 40 50" fill="none" xmlns="http://www.w3.org/2000/svg">
<path d="M12.5 43.5914H27.5V48.7183H12.5C5.6 48.7183 0 42.9762 0 35.9011V12.83H5V35.9011C5 40.1564 8.35 43.5914 12.5 43.5914ZM16.05 8.75417C18 6.75468 18 3.4991 16.05 1.49962C14.1 -0.499872 10.925 -0.499872 8.975 1.49962C7.025 3.4991 7.025 6.75468 8.975 8.75417C10.925 10.7793 14.075 10.7793 16.05 8.75417ZM18.75 17.9569C18.75 15.1371 16.5 12.83 13.75 12.83H12.5C9.75 12.83 7.5 15.1371 7.5 17.9569V33.3376C7.5 37.5929 10.85 41.0279 15 41.0279H27.675L36.425 50L40 46.3343L27.325 33.3376H18.75V17.9569Z" fill="#0D2D42"/>
</svg>
