<svg width="55" height="55" viewBox="0 0 55 55" fill="none" xmlns="http://www.w3.org/2000/svg">
<path fill-rule="evenodd" clip-rule="evenodd" d="M27.5004 0C35.0937 0 41.9696 3.07842 46.9458 8.05476C51.9221 13.0311 55 19.9065 55 27.4998C55 35.0931 51.9221 41.9696 46.9458 46.946C41.9695 51.9223 35.0935 55 27.5004 55C19.9072 55 13.0313 51.9223 8.05476 46.946C3.07842 41.9695 0 35.0935 0 27.4996C0 19.9057 3.07842 13.0311 8.05476 8.05476C13.0315 3.07842 19.9069 0 27.5004 0ZM27.5004 22.4823C24.7292 22.4823 22.4825 24.7292 22.4825 27.4996C22.4825 30.2701 24.729 32.5177 27.5004 32.5177C30.2717 32.5177 32.5179 30.2714 32.5179 27.4996C32.5179 24.7279 30.2717 22.4823 27.5004 22.4823ZM39.2684 21.1837C28.1208 18.5386 20.2687 20.009 14.7044 21.5087C14.5121 21.6068 14.3431 21.782 14.1976 22.0186C13.7377 22.7664 13.5393 24.0519 13.5781 25.5331C13.6173 27.0524 13.9085 28.7599 14.4255 30.3055C14.9687 31.9306 15.7562 33.3675 16.7512 34.1888C17.7119 34.7796 18.5436 35.425 19.1022 36.0518C20.199 37.2823 21.851 39.9338 22.8585 42.7829H32.2049C33.1846 39.9653 34.751 37.0449 36.3848 35.5727C36.8458 35.1582 37.5804 34.645 38.4865 34.1168C39.5644 33.2801 40.4163 31.7373 40.989 30.004C41.4825 28.5103 41.7644 26.8864 41.8048 25.4475C41.8453 24.0425 41.6611 22.8279 41.225 22.1115C41.0544 21.8303 40.8451 21.6355 40.5995 21.5544L40.6008 21.5492C40.1288 21.408 39.6817 21.2818 39.2684 21.1837ZM41.0649 32.068C41.7414 31 42.231 28.8929 42.4365 27.6436C42.6483 26.3544 42.9177 23.9309 42.3945 22.7765C44.389 23.4074 46.3235 23.3406 48.0782 23.3576C49.8369 23.3746 49.9099 23.0902 49.9427 21.3858C48.8648 17.4215 46.7655 13.8783 43.944 11.0568C39.736 6.84871 33.9221 4.24607 27.5004 4.24607C21.0786 4.24607 15.265 6.84853 11.0568 11.0568C8.21547 13.8978 6.10651 17.4713 5.03619 21.4696C5.07142 23.2478 5.38762 23.4568 7.22624 23.3443C8.81244 23.2465 10.5851 23.162 13.0857 22.45C12.2009 24.3289 12.9862 28.6704 13.6229 30.5747C13.9338 31.5043 14.085 31.9698 14.5498 32.728C12.9448 31.9868 5.53527 29.7495 4.73509 32.2651C5.67435 36.7746 7.91885 40.8055 11.0569 43.9436C13.9996 46.8854 17.728 49.0436 21.8998 50.0744C22.3575 50.0548 22.8033 49.9867 23.2345 49.8652C24.0239 48.1164 24.3168 45.8512 23.6467 43.6317H31.4165C30.6953 45.9733 30.9358 48.1313 31.4295 49.1761C31.6734 49.6933 32.0649 50.0253 32.5688 50.1998C36.9555 49.2246 40.8766 47.0109 43.944 43.9436C46.8688 41.0181 49.0182 37.3158 50.0563 33.1738C50.1831 32.6704 50.3486 32.2364 50.2407 31.7276C47.9108 30.3601 44.3113 30.5424 41.0647 32.0675L41.0649 32.068Z" fill="#0D2D42"/>
</svg>
